<svg xmlns="http://www.w3.org/2000/svg" width="512" height="930" viewBox="0 0 512 930">
  <g fill="none">
    <path fill="#B1060F" d="M329.503875,0 L329.137121,205.306111 L328.770788,410.612223 L311.905992,362.951868 L311.905992,362.829617 L290.030994,819.880102 C311.539659,880.494472 323.027078,912.878877 323.148908,913.001129 C323.27116,913.12338 335.491666,913.856467 350.27861,914.589976 C395.006195,916.789237 450.487691,921.555357 492.648839,926.810482 C502.42516,928.032154 510.735306,928.643832 511.346142,928.154405 C511.957399,927.665821 512.079651,718.693431 511.957399,463.649533 L511.590645,0 L329.503875,0 Z M0,0.122251436 L0,464.26079 C0,719.549191 0.244502873,928.643832 0.611257182,929.010165 C0.977589935,929.376919 16.7421234,927.788494 35.8061811,925.710641 C54.8706602,923.63321 81.1450233,920.944521 94.2208683,919.84468 C114.262516,918.133581 174.38788,914.345473 181.231853,914.223221 C183.308863,914.223221 183.431114,903.835643 183.675617,717.594011 L184.042371,520.964379 L198.584812,562.025264 C200.784495,568.380653 201.518003,570.335411 203.717264,576.568126 L225.592262,119.639893 C220.948394,106.563626 223.392579,113.407177 218.137875,98.4979824 C200.29591,48.0271091 185.142212,5.37695542 184.530955,3.42177555 L183.308863,0 L0,0 L0,0.122251436 Z"/>
    <path fill="#E50914" d="M0.421556677,0.122251436 L184.341676,521.331133 L184.341676,521.086631 L198.884117,562.147516 C279.662386,790.79522 323.045627,913.490134 323.29013,913.734637 C323.41196,913.856889 335.632466,914.589976 350.41941,915.323063 C395.146995,917.522746 450.628491,922.288865 492.789639,927.543991 C502.443708,928.765662 510.876106,929.376919 511.365112,928.887914 L329.033839,411.22348 L329.033839,411.345732 L312.169043,363.685377 C295.671422,317.124442 284.673009,285.962129 218.314929,98.4979824 C200.472964,48.0271091 185.319266,5.37695542 184.708431,3.42177555 L183.486338,0 L91.9537365,0 L0.421556677,0.122251436 Z"/>
  </g>
</svg>